<svg id="Lager_1" data-name="Lager 1" xmlns="http://www.w3.org/2000/svg" width="247.8049mm" height="60.004mm" viewBox="0 0 702.439 170.09"><defs><style>.cls-1{fill:#bd1d1d;}</style></defs><title>nibe-logo</title><path class="cls-1" d="M0,170.0474v-6.6328H6.2269c10.7126,0,13.9544-12.0172,13.9544-23.3064V19.6287C15.4473,13.4978,11.4594,6.3819,3.7342,6.3819H0V0H94.6554L162.16,91.0361V18.8946c0-6.8712-7.7252-12.2682-16.9395-12.2682h-4.9819V0h51.3171V6.6264h-7.48c-12.9486,0-12.701,9.57-12.701,29.6882V170.0474H129.5254L28.8944,33.6162v106.492c0,11.2892,2.4923,23.3064,14.4469,23.3064h7.9728v6.6328Z"/><path class="cls-1" d="M200.9551,170.0474v-6.6328h18.93V6.6264h-18.93V0H316.0333V6.6264H297.1027V163.4146h18.9306v6.6328Z"/><path class="cls-1" d="M326.7014,170.0474v-6.6328h18.93V6.6264h-18.93V0H463.4531c25.6526,0,61.0242,9.086,61.0242,40.4877,0,29.9327-33.1268,37.7833-57.5376,38.2787v4.9073c5.2295.2446,10.7158.7343,15.94,1.2239,23.1691,2.21,45.8367,13.7439,45.8367,39.7486,0,48.5831-57.7882,45.4012-92.4137,45.4012Zm95.16-6.6328h8.4655c18.93,0,19.4257-16.9246,19.4257-23.7957V107.471c0-18.8887-9.468-22.5734-21.9214-22.5734h-5.97Zm0-85.3824h10.7041c9.7129,0,14.1963-8.1011,14.1963-19.1454v-34.1c0-12.7633-6.4772-18.16-19.1752-18.16h-5.7252Z"/><path class="cls-1" d="M531.8082,170.0474v-6.6328h18.4351V6.6264H531.8082V0H698.9469l1.2477,59.6271h-8.2207c-6.9726-26.99-23.9152-53.0007-51.06-53.0007H625.72V80.9693h4.2267c7.7251,0,25.1632-8.095,27.4018-33.3656h8.2265v74.84h-8.2265C655.11,95.6925,637.672,87.5975,629.9469,87.5975H625.72v75.8171h16.9365c18.9306,0,38.6073-13.7366,52.3081-58.1464h7.4742l-1.2476,64.7792Z"/></svg>